<svg xmlns="http://www.w3.org/2000/svg" viewBox="0 0 100 110" width="100" height="110">
  <!-- Nightcrew Owl Logo -->
  <!-- Body -->
  <ellipse cx="50" cy="58" rx="36" ry="38" fill="#312e81"/>
  <!-- Belly -->
  <ellipse cx="50" cy="68" rx="22" ry="22" fill="#3730a3"/>
  <!-- Ear tufts -->
  <path d="M 26 28 Q 30 10 38 24" fill="#312e81"/>
  <path d="M 74 28 Q 70 10 62 24" fill="#312e81"/>
  <!-- Eye sockets -->
  <circle cx="36" cy="48" r="14" fill="#1e1b4b"/>
  <circle cx="64" cy="48" r="14" fill="#1e1b4b"/>
  <!-- Iris -->
  <circle cx="36" cy="48" r="10" fill="#fbbf24"/>
  <circle cx="64" cy="48" r="10" fill="#fbbf24"/>
  <!-- Pupil -->
  <circle cx="38" cy="46" r="5" fill="#0a0a1a"/>
  <circle cx="66" cy="46" r="5" fill="#0a0a1a"/>
  <!-- Eye shine -->
  <circle cx="40" cy="44" r="2.5" fill="white" opacity="0.8"/>
  <circle cx="68" cy="44" r="2.5" fill="white" opacity="0.8"/>
  <!-- Beak -->
  <path d="M 46 58 L 50 64 L 54 58 Z" fill="#f97316"/>
  <!-- Feet -->
  <ellipse cx="40" cy="95" rx="8" ry="4" fill="#f97316" opacity="0.8"/>
  <ellipse cx="60" cy="95" rx="8" ry="4" fill="#f97316" opacity="0.8"/>
</svg>
